{
  "accessors": [
    {
      "bufferView": 2,
      "componentType": 5126,
      "count": 6571,
      "max": [
        319736.40625,
        564664.75,
        1069020.25
      ],
      "min": [
        722.109375,
        98477.625,
        682844.9375
      ],
      "type": "VEC3"
    },
    {
      "bufferView": 2,
      "byteOffset": 78852,
      "componentType": 5126,
      "count": 6571,
      "max": [
        0.9998725652694702,
        0.9999221563339233,
        0.9997202754020691
      ],
      "min": [
        -0.9996885657310486,
        -0.9999136328697205,
        -0.9999249577522278
      ],
      "type": "VEC3"
    },
    {
      "bufferView": 1,
      "componentType": 5126,
      "count": 6571,
      "max": [
        1.9931609630584717,
        0.9994999766349792
      ],
      "min": [
        1.000499963760376,
        0.0005000000237487257
      ],
      "type": "VEC2"
    },
    {
      "bufferView": 0,
      "componentType": 5125,
      "count": 30132,
      "type": "SCALAR"
    },
    {
      "bufferView": 2,
      "byteOffset": 157704,
      "componentType": 5126,
      "count": 20824,
      "max": [
        322381.5625,
        565046.5,
        1068650.625
      ],
      "min": [
        0.0,
        0.0,
        28290.1875
      ],
      "type": "VEC3"
    },
    {
      "bufferView": 2,
      "byteOffset": 407592,
      "componentType": 5126,
      "count": 20824,
      "max": [
        0.9999973177909851,
        0.9997276067733765,
        0.9998009204864502
      ],
      "min": [
        -0.9999842047691345,
        -0.9997464418411255,
        -0.9999662637710571
      ],
      "type": "VEC3"
    },
    {
      "bufferView": 1,
      "byteOffset": 52568,
      "componentType": 5126,
      "count": 20824,
      "max": [
        2.998831033706665,
        0.9997090101242065
      ],
      "min": [
        1.9994360208511353,
        0.001180000021122396
      ],
      "type": "VEC2"
    },
    {
      "bufferView": 0,
      "byteOffset": 120528,
      "componentType": 5125,
      "count": 85167,
      "type": "SCALAR"
    },
    {
      "bufferView": 2,
      "byteOffset": 657480,
      "componentType": 5126,
      "count": 35111,
      "max": [
        1026123.5625,
        550919.8125,
        838723.8125
      ],
      "min": [
        537631.0625,
        57001.0,
        396991.5
      ],
      "type": "VEC3"
    },
    {
      "bufferView": 2,
      "byteOffset": 1078812,
      "componentType": 5126,
      "count": 35111,
      "max": [
        0.9999910593032837,
        0.9999903440475464,
        0.9997997879981995
      ],
      "min": [
        -0.9997929334640503,
        -0.9999064207077026,
        -0.9999197125434875
      ],
      "type": "VEC3"
    },
    {
      "bufferView": 1,
      "byteOffset": 219160,
      "componentType": 5126,
      "count": 35111,
      "max": [
        0.9998000264167786,
        0.9852929711341858
      ],
      "min": [
        -3.999999989900971e-06,
        -3.999999989900971e-06
      ],
      "type": "VEC2"
    },
    {
      "bufferView": 0,
      "byteOffset": 461196,
      "componentType": 5125,
      "count": 125658,
      "type": "SCALAR"
    },
    {
      "bufferView": 2,
      "byteOffset": 1500144,
      "componentType": 5126,
      "count": 14,
      "max": [
        447251.9375,
        109443.8125,
        1357742.875
      ],
      "min": [
        407197.625,
        67403.34375,
        1334617.25
      ],
      "type": "VEC3"
    },
    {
      "bufferView": 2,
      "byteOffset": 1500312,
      "componentType": 5126,
      "count": 14,
      "max": [
        0.18822303414344788,
        0.7608311176300049,
        0.6298763155937195
      ],
      "min": [
        -0.2672466039657593,
        -0.6796693205833435,
        -0.9654603600502014
      ],
      "type": "VEC3"
    },
    {
      "bufferView": 0,
      "byteOffset": 963828,
      "componentType": 5125,
      "count": 30,
      "type": "SCALAR"
    },
    {
      "bufferView": 2,
      "byteOffset": 1500480,
      "componentType": 5126,
      "count": 2068,
      "max": [
        532294.375,
        123184.34375,
        1433176.375
      ],
      "min": [
        342535.84375,
        77363.65625,
        1290787.375
      ],
      "type": "VEC3"
    },
    {
      "bufferView": 2,
      "byteOffset": 1525296,
      "componentType": 5126,
      "count": 2068,
      "max": [
        0.9999912977218628,
        0.8789290189743042,
        0.993868350982666
      ],
      "min": [
        -0.999991238117218,
        -0.9967231750488281,
        -0.9767249822616577
      ],
      "type": "VEC3"
    },
    {
      "bufferView": 1,
      "byteOffset": 500048,
      "componentType": 5126,
      "count": 2068,
      "max": [
        2.859889030456543,
        0.9673290252685547
      ],
      "min": [
        2.859889030456543,
        0.9673290252685547
      ],
      "type": "VEC2"
    },
    {
      "bufferView": 0,
      "byteOffset": 963948,
      "componentType": 5125,
      "count": 7674,
      "type": "SCALAR"
    },
    {
      "bufferView": 2,
      "byteOffset": 1550112,
      "componentType": 5126,
      "count": 15490,
      "max": [
        243742.5,
        549129.8125,
        1033845.5
      ],
      "min": [
        61345.9453125,
        2711.875,
        0.0
      ],
      "type": "VEC3"
    },
    {
      "bufferView": 2,
      "byteOffset": 1735992,
      "componentType": 5126,
      "count": 15490,
      "max": [
        0.999913215637207,
        0.9999348521232605,
        0.9999997615814209
      ],
      "min": [
        -0.9997855424880981,
        -0.9999557137489319,
        -0.9996963739395142
      ],
      "type": "VEC3"
    },
    {
      "bufferView": 1,
      "byteOffset": 516592,
      "componentType": 5126,
      "count": 15490,
      "max": [
        0.9989820122718811,
        0.9997490048408508
      ],
      "min": [
        0.00025099999038502574,
        0.0010179999517276883
      ],
      "type": "VEC2"
    },
    {
      "bufferView": 0,
      "byteOffset": 994644,
      "componentType": 5125,
      "count": 68130,
      "type": "SCALAR"
    },
    {
      "bufferView": 2,
      "byteOffset": 1921872,
      "componentType": 5126,
      "count": 640,
      "max": [
        448356.875,
        126097.96875,
        1369249.75
      ],
      "min": [
        407013.28125,
        66472.40625,
        1313126.625
      ],
      "type": "VEC3"
    },
    {
      "bufferView": 2,
      "byteOffset": 1929552,
      "componentType": 5126,
      "count": 640,
      "max": [
        0.997664213180542,
        0.8261207938194275,
        0.7985066771507263
      ],
      "min": [
        -0.9897013902664185,
        -0.9699984192848206,
        -0.941994309425354
      ],
      "type": "VEC3"
    },
    {
      "bufferView": 1,
      "byteOffset": 640512,
      "componentType": 5126,
      "count": 640,
      "max": [
        2.859889030456543,
        0.9673290252685547
      ],
      "min": [
        2.859889030456543,
        0.9673290252685547
      ],
      "type": "VEC2"
    },
    {
      "bufferView": 0,
      "byteOffset": 1267164,
      "componentType": 5125,
      "count": 2490,
      "type": "SCALAR"
    },
    {
      "bufferView": 2,
      "byteOffset": 1937232,
      "componentType": 5126,
      "count": 56,
      "max": [
        437910.03125,
        79788.21875,
        1337137.75
      ],
      "min": [
        406495.59375,
        60794.9375,
        1319347.5
      ],
      "type": "VEC3"
    },
    {
      "bufferView": 2,
      "byteOffset": 1937904,
      "componentType": 5126,
      "count": 56,
      "max": [
        0.8815101385116577,
        0.9329099655151367,
        0.9501610994338989
      ],
      "min": [
        -0.8850308060646057,
        -0.9013276100158691,
        -0.9748233556747437
      ],
      "type": "VEC3"
    },
    {
      "bufferView": 0,
      "byteOffset": 1277124,
      "componentType": 5125,
      "count": 96,
      "type": "SCALAR"
    },
    {
      "bufferView": 2,
      "byteOffset": 1938576,
      "componentType": 5126,
      "count": 21410,
      "max": [
        601121.75,
        595450.125,
        1793656.625
      ],
      "min": [
        269027.15625,
        12991.1875,
        1244814.375
      ],
      "type": "VEC3"
    },
    {
      "bufferView": 2,
      "byteOffset": 2195496,
      "componentType": 5126,
      "count": 21410,
      "max": [
        0.999797523021698,
        0.999977171421051,
        0.9999473690986633
      ],
      "min": [
        -0.9999986886978149,
        -0.9999475479125977,
        -0.999994695186615
      ],
      "type": "VEC3"
    },
    {
      "bufferView": 0,
      "byteOffset": 1277508,
      "componentType": 5125,
      "count": 54156,
      "type": "SCALAR"
    },
    {
      "bufferView": 2,
      "byteOffset": 2452416,
      "componentType": 5126,
      "count": 1997,
      "max": [
        575865.3125,
        594416.625,
        1506803.5
      ],
      "min": [
        276777.71875,
        49045.5,
        1277354.25
      ],
      "type": "VEC3"
    },
    {
      "bufferView": 2,
      "byteOffset": 2476380,
      "componentType": 5126,
      "count": 1997,
      "max": [
        0.9998890161514282,
        0.9997563362121582,
        0.9994192719459534
      ],
      "min": [
        -0.9998890161514282,
        -0.998363733291626,
        -0.9958173632621765
      ],
      "type": "VEC3"
    },
    {
      "bufferView": 0,
      "byteOffset": 1494132,
      "componentType": 5125,
      "count": 5658,
      "type": "SCALAR"
    },
    {
      "bufferView": 2,
      "byteOffset": 2500344,
      "componentType": 5126,
      "count": 2343,
      "max": [
        607157.1875,
        593268.75,
        1760089.625
      ],
      "min": [
        282669.25,
        69967.46875,
        1292546.25
      ],
      "type": "VEC3"
    },
    {
      "bufferView": 2,
      "byteOffset": 2528460,
      "componentType": 5126,
      "count": 2343,
      "max": [
        0.9983500838279724,
        0.9995065927505493,
        0.999128520488739
      ],
      "min": [
        -0.9983500838279724,
        -0.9999861717224121,
        -0.9991286396980286
      ],
      "type": "VEC3"
    },
    {
      "bufferView": 0,
      "byteOffset": 1516764,
      "componentType": 5125,
      "count": 7689,
      "type": "SCALAR"
    },
    {
      "bufferView": 2,
      "byteOffset": 2556576,
      "componentType": 5126,
      "count": 28,
      "max": [
        495756.71875,
        133211.84375,
        1350498.5
      ],
      "min": [
        352424.71875,
        57342.40625,
        1314941.75
      ],
      "type": "VEC3"
    },
    {
      "bufferView": 2,
      "byteOffset": 2556912,
      "componentType": 5126,
      "count": 28,
      "max": [
        0.9023134112358093,
        0.6395024657249451,
        0.0379384346306324
      ],
      "min": [
        -0.9990160465240479,
        0.022969486191868782,
        -0.9721410870552063
      ],
      "type": "VEC3"
    },
    {
      "bufferView": 0,
      "byteOffset": 1547520,
      "componentType": 5125,
      "count": 42,
      "type": "SCALAR"
    }
  ],
  "asset": {
    "extras": {
      "author": "ann55010970637 (https://sketchfab.com/ann55010970637)",
      "license": "CC-BY-4.0 (http://creativecommons.org/licenses/by/4.0/)",
      "source": "https://sketchfab.com/3d-models/godzilla-vs-kong-fight-cb510d3dfec24c44878999031e5d5f1b",
      "title": "Godzilla Vs Kong Fight"
    },
    "generator": "Sketchfab-13.15.0",
    "version": "2.0"
  },
  "bufferViews": [
    {
      "buffer": 0,
      "byteLength": 1547688,
      "name": "floatBufferViews",
      "target": 34963
    },
    {
      "buffer": 0,
      "byteLength": 645632,
      "byteOffset": 1547688,
      "byteStride": 8,
      "name": "floatBufferViews",
      "target": 34962
    },
    {
      "buffer": 0,
      "byteLength": 2557248,
      "byteOffset": 2193320,
      "byteStride": 12,
      "name": "floatBufferViews",
      "target": 34962
    }
  ],
  "buffers": [
    {
      "byteLength": 4750568,
      "uri": "scene.bin"
    }
  ],
  "images": [
    {
      "uri": "textures/Mat_0_baseColor.png"
    },
    {
      "uri": "textures/Mat_1_baseColor.png"
    },
    {
      "uri": "textures/Mat_2_baseColor.png"
    },
    {
      "uri": "textures/material_0_0_baseColor.png"
    }
  ],
  "materials": [
    {
      "doubleSided": true,
      "name": "Mat_0",
      "pbrMetallicRoughness": {
        "baseColorTexture": {
          "index": 0
        },
        "metallicFactor": 0.0
      }
    },
    {
      "doubleSided": true,
      "name": "Mat_1",
      "pbrMetallicRoughness": {
        "baseColorTexture": {
          "index": 1
        },
        "metallicFactor": 0.0
      }
    },
    {
      "doubleSided": true,
      "name": "Mat_2",
      "pbrMetallicRoughness": {
        "baseColorTexture": {
          "index": 2
        },
        "metallicFactor": 0.0
      }
    },
    {
      "doubleSided": true,
      "name": "material_0_0",
      "pbrMetallicRoughness": {
        "baseColorTexture": {
          "index": 3
        },
        "metallicFactor": 0.0
      }
    },
    {
      "doubleSided": true,
      "name": "material_12___4495_0",
      "pbrMetallicRoughness": {
        "baseColorFactor": [
          0.786136,
          0.749683,
          0.288714,
          1.0
        ],
        "metallicFactor": 0.0
      }
    },
    {
      "doubleSided": true,
      "name": "material_15___4495_0",
      "pbrMetallicRoughness": {
        "baseColorFactor": [
          0.912197,
          0.929502,
          0.937057,
          1.0
        ],
        "metallicFactor": 0.0
      }
    },
    {
      "doubleSided": true,
      "name": "material_16___4495_0",
      "pbrMetallicRoughness": {
        "baseColorFactor": [
          0.715642,
          0.776467,
          0.804665,
          1.0
        ],
        "metallicFactor": 0.0
      }
    },
    {
      "doubleSided": true,
      "name": "material_17___4498_0",
      "pbrMetallicRoughness": {
        "baseColorFactor": [
          0.250392,
          0.284713,
          0.29941,
          1.0
        ],
        "metallicFactor": 0.0
      }
    },
    {
      "doubleSided": true,
      "name": "material_8___4498_0",
      "pbrMetallicRoughness": {
        "baseColorFactor": [
          0.803835,
          0.168962,
          0.092477,
          1.0
        ],
        "metallicFactor": 0.0
      }
    }
  ],
  "meshes": [
    {
      "name": "Object_0",
      "primitives": [
        {
          "attributes": {
            "NORMAL": 1,
            "POSITION": 0,
            "TEXCOORD_0": 2
          },
          "indices": 3,
          "material": 1,
          "mode": 4
        }
      ]
    },
    {
      "name": "Object_1",
      "primitives": [
        {
          "attributes": {
            "NORMAL": 5,
            "POSITION": 4,
            "TEXCOORD_0": 6
          },
          "indices": 7,
          "material": 2,
          "mode": 4
        }
      ]
    },
    {
      "name": "Object_2",
      "primitives": [
        {
          "attributes": {
            "NORMAL": 9,
            "POSITION": 8,
            "TEXCOORD_0": 10
          },
          "indices": 11,
          "material": 3,
          "mode": 4
        }
      ]
    },
    {
      "name": "Object_3",
      "primitives": [
        {
          "attributes": {
            "NORMAL": 13,
            "POSITION": 12
          },
          "indices": 14,
          "material": 6,
          "mode": 4
        }
      ]
    },
    {
      "name": "Object_4",
      "primitives": [
        {
          "attributes": {
            "NORMAL": 16,
            "POSITION": 15,
            "TEXCOORD_0": 17
          },
          "indices": 18,
          "material": 0,
          "mode": 4
        }
      ]
    },
    {
      "name": "Object_5",
      "primitives": [
        {
          "attributes": {
            "NORMAL": 20,
            "POSITION": 19,
            "TEXCOORD_0": 21
          },
          "indices": 22,
          "material": 0,
          "mode": 4
        }
      ]
    },
    {
      "name": "Object_6",
      "primitives": [
        {
          "attributes": {
            "NORMAL": 24,
            "POSITION": 23,
            "TEXCOORD_0": 25
          },
          "indices": 26,
          "material": 0,
          "mode": 4
        }
      ]
    },
    {
      "name": "Object_7",
      "primitives": [
        {
          "attributes": {
            "NORMAL": 28,
            "POSITION": 27
          },
          "indices": 29,
          "material": 4,
          "mode": 4
        }
      ]
    },
    {
      "name": "Object_8",
      "primitives": [
        {
          "attributes": {
            "NORMAL": 31,
            "POSITION": 30
          },
          "indices": 32,
          "material": 5,
          "mode": 4
        }
      ]
    },
    {
      "name": "Object_9",
      "primitives": [
        {
          "attributes": {
            "NORMAL": 34,
            "POSITION": 33
          },
          "indices": 35,
          "material": 5,
          "mode": 4
        }
      ]
    },
    {
      "name": "Object_10",
      "primitives": [
        {
          "attributes": {
            "NORMAL": 37,
            "POSITION": 36
          },
          "indices": 38,
          "material": 7,
          "mode": 4
        }
      ]
    },
    {
      "name": "Object_11",
      "primitives": [
        {
          "attributes": {
            "NORMAL": 40,
            "POSITION": 39
          },
          "indices": 41,
          "material": 8,
          "mode": 4
        }
      ]
    }
  ],
  "nodes": [
    {
      "children": [
        1
      ],
      "matrix": [
        1.0,
        0.0,
        0.0,
        0.0,
        0.0,
        -1.0,
        -4.440892098500626e-16,
        0.0,
        0.0,
        4.440892098500626e-16,
        -1.0,
        0.0,
        0.0,
        0.0,
        0.0,
        1.0
      ],
      "name": "Sketchfab_model"
    },
    {
      "children": [
        2
      ],
      "matrix": [
        1.0,
        0.0,
        0.0,
        0.0,
        0.0,
        1.0,
        0.0,
        0.0,
        0.0,
        0.0,
        1.0,
        0.0,
        -127633.9453125,
        -565046.5625,
        -595253.625,
        1.0
      ],
      "name": "skfb_offset"
    },
    {
      "children": [
        3,
        4,
        5,
        6,
        7,
        8,
        9,
        10,
        11,
        12,
        13,
        14
      ],
      "name": "Object_2"
    },
    {
      "mesh": 0,
      "name": "Object_3"
    },
    {
      "mesh": 1,
      "name": "Object_4"
    },
    {
      "mesh": 2,
      "name": "Object_5"
    },
    {
      "mesh": 3,
      "name": "Object_6"
    },
    {
      "mesh": 4,
      "name": "Object_7"
    },
    {
      "mesh": 5,
      "name": "Object_8"
    },
    {
      "mesh": 6,
      "name": "Object_9"
    },
    {
      "mesh": 7,
      "name": "Object_10"
    },
    {
      "mesh": 8,
      "name": "Object_11"
    },
    {
      "mesh": 9,
      "name": "Object_12"
    },
    {
      "mesh": 10,
      "name": "Object_13"
    },
    {
      "mesh": 11,
      "name": "Object_14"
    }
  ],
  "samplers": [
    {
      "magFilter": 9729,
      "minFilter": 9987,
      "wrapS": 10497,
      "wrapT": 10497
    }
  ],
  "scene": 0,
  "scenes": [
    {
      "name": "Sketchfab_Scene",
      "nodes": [
        0
      ]
    }
  ],
  "textures": [
    {
      "sampler": 0,
      "source": 0
    },
    {
      "sampler": 0,
      "source": 1
    },
    {
      "sampler": 0,
      "source": 2
    },
    {
      "sampler": 0,
      "source": 3
    }
  ]
}
